<svg width="31" height="30" viewBox="0 0 31 30" fill="none" xmlns="http://www.w3.org/2000/svg">
<path fill-rule="evenodd" clip-rule="evenodd" d="M10.2236 0.295796C10.0243 0.105843 9.75957 -0.00012207 9.48428 -0.00012207C9.20898 -0.00012207 8.94425 0.105843 8.74499 0.295796L0.867848 7.7958C0.762861 7.89588 0.679288 8.01624 0.622195 8.14958C0.565102 8.28292 0.535678 8.42646 0.535706 8.57151V28.9287C0.535706 29.2128 0.648588 29.4853 0.84952 29.6863C1.05045 29.8872 1.32297 30.0001 1.60713 30.0001H7.34142V25.7144C7.34142 25.146 7.56718 24.601 7.96905 24.1991C8.37091 23.7973 8.91596 23.5715 9.48428 23.5715C10.0526 23.5715 10.5976 23.7973 10.9995 24.1991C11.4014 24.601 11.6271 25.146 11.6271 25.7144V30.0001H17.3636C17.5043 30.0001 17.6436 29.9724 17.7736 29.9185C17.9036 29.8647 18.0217 29.7858 18.1212 29.6863C18.2207 29.5868 18.2996 29.4687 18.3534 29.3387C18.4073 29.2087 18.435 29.0694 18.435 28.9287V8.57151C18.4347 8.42631 18.405 8.28267 18.3475 8.14932C18.2901 8.01597 18.2061 7.8957 18.1007 7.7958L10.2236 0.295796ZM21.4714 13.9287C21.4714 13.6445 21.5843 13.372 21.7852 13.171C21.9862 12.9701 22.2587 12.8572 22.5428 12.8572H29.4643C29.7484 12.8572 30.021 12.9701 30.2219 13.171C30.4228 13.372 30.5357 13.6445 30.5357 13.9287V28.9287C30.5357 29.2128 30.4228 29.4853 30.2219 29.6863C30.021 29.8872 29.7484 30.0001 29.4643 30.0001H22.5407C22.4 30.0001 22.2607 29.9724 22.1307 29.9185C22.0007 29.8647 21.8826 29.7858 21.7831 29.6863C21.6836 29.5868 21.6047 29.4687 21.5508 29.3387C21.497 29.2087 21.4693 29.0694 21.4693 28.9287V13.9287H21.4714ZM5.19213 16.6351C5.19213 15.8958 5.79213 15.2958 6.53142 15.2958H12.4393C12.7945 15.2958 13.1351 15.4369 13.3863 15.6881C13.6375 15.9392 13.7786 16.2799 13.7786 16.6351C13.7786 16.9903 13.6375 17.3309 13.3863 17.5821C13.1351 17.8333 12.7945 17.9744 12.4393 17.9744H6.53142C6.17622 17.9744 5.83557 17.8333 5.5844 17.5821C5.33324 17.3309 5.19213 16.9903 5.19213 16.6351ZM6.53142 9.70937C6.35554 9.70937 6.18139 9.74401 6.0189 9.81131C5.85641 9.87862 5.70877 9.97727 5.5844 10.1016C5.46004 10.226 5.36139 10.3736 5.29408 10.5361C5.22678 10.6986 5.19213 10.8728 5.19213 11.0487C5.19213 11.2245 5.22678 11.3987 5.29408 11.5612C5.36139 11.7237 5.46004 11.8713 5.5844 11.9957C5.70877 12.12 5.85641 12.2187 6.0189 12.286C6.18139 12.3533 6.35554 12.3879 6.53142 12.3879H12.4393C12.6152 12.3879 12.7893 12.3533 12.9518 12.286C13.1143 12.2187 13.2619 12.12 13.3863 11.9957C13.5107 11.8713 13.6093 11.7237 13.6766 11.5612C13.7439 11.3987 13.7786 11.2245 13.7786 11.0487C13.7786 10.8728 13.7439 10.6986 13.6766 10.5361C13.6093 10.3736 13.5107 10.226 13.3863 10.1016C13.2619 9.97727 13.1143 9.87862 12.9518 9.81131C12.7893 9.74401 12.6152 9.70937 12.4393 9.70937H6.53142Z" fill="#06AADD"/>
</svg>
