<svg width="25" height="25" viewBox="0 0 25 25" fill="none" xmlns="http://www.w3.org/2000/svg">
<g clip-path="url(#clip0_331_36)">
<path d="M9.87896 8.93702H8.60571C8.23187 8.91751 7.86195 9.0209 7.5524 9.2314C7.24285 9.4419 7.0107 9.74791 6.89142 10.1027L5.57142 14.0799H2.99999C2.54533 14.0799 2.1093 14.2605 1.78781 14.582C1.46632 14.9035 1.28571 15.3395 1.28571 15.7942V19.2228C1.28571 19.6774 1.46632 20.1134 1.78781 20.435C2.1093 20.7564 2.54533 20.9371 2.99999 20.9371H3.85713" stroke="#0E2433" stroke-linecap="round" stroke-linejoin="round"/>
<path d="M21 14.0801H21.8571C22.3118 14.0801 22.7479 14.2607 23.0693 14.5822C23.3907 14.9037 23.5714 15.3397 23.5714 15.7944V19.223C23.5714 19.6776 23.3907 20.1135 23.0693 20.4351C22.7479 20.7566 22.3118 20.9373 21.8571 20.9373H21" stroke="#0E2433" stroke-linecap="round" stroke-linejoin="round"/>
<path d="M18.4267 23.5085C17.0056 23.5085 15.8535 22.3563 15.8535 20.9352C15.8535 19.5141 17.0056 18.3621 18.4267 18.3621C19.848 18.3621 21 19.5141 21 20.9352C21 22.3563 19.848 23.5085 18.4267 23.5085Z" stroke="#0E2433" stroke-linecap="round" stroke-linejoin="round"/>
<path d="M6.42676 23.5085C5.0056 23.5085 3.85352 22.3565 3.85352 20.9352C3.85352 19.5141 5.0056 18.3621 6.42676 18.3621C7.84792 18.3621 9.00001 19.5141 9.00001 20.9352C9.00001 22.3565 7.84792 23.5085 6.42676 23.5085Z" stroke="#0E2433" stroke-linecap="round" stroke-linejoin="round"/>
<path d="M15.8538 20.9373H9.00024" stroke="#0E2433" stroke-linecap="round" stroke-linejoin="round"/>
</g>
<path d="M15.3964 5.78284H20.4609V7.14638C20.4609 8.54492 19.3272 9.67869 17.9287 9.67869C16.5301 9.67869 15.3964 8.54492 15.3964 7.14638V5.78284Z" stroke="#0E2433" stroke-linecap="round" stroke-linejoin="round"/>
<path d="M16.5536 5.78284V3.72034" stroke="#0E2433" stroke-linecap="round" stroke-linejoin="round"/>
<path d="M19.3036 5.78284V3.72034" stroke="#0E2433" stroke-linecap="round" stroke-linejoin="round"/>
<path d="M17.9286 9.67859V11.5486C17.9286 12.0346 18.3252 12.436 18.8051 12.3592C21.4261 11.9394 23.4286 9.66785 23.4286 6.92859C23.4286 3.89102 20.9662 1.42859 17.9286 1.42859C14.891 1.42859 12.4286 3.89102 12.4286 6.92859C12.4286 8.96436 13.5346 10.7418 15.1786 11.6928" stroke="#0E2433" stroke-linecap="round" stroke-linejoin="round"/>
<defs>
<clipPath id="clip0_331_36">
<rect width="24" height="24" fill="white" transform="translate(0.428589 0.428589)"/>
</clipPath>
</defs>
</svg>
