<svg width="21" height="21" viewBox="0 0 21 21" fill="none" xmlns="http://www.w3.org/2000/svg">
<path d="M7.70864 10.8489C7.51595 10.8489 7.35974 10.6927 7.35974 10.5C7.35974 10.3073 7.51595 10.1511 7.70864 10.1511" stroke="#0E2433" stroke-linecap="round" stroke-linejoin="round"/>
<path d="M7.70862 10.8489C7.90131 10.8489 8.05752 10.6927 8.05752 10.5C8.05752 10.3073 7.90131 10.1511 7.70862 10.1511" stroke="#0E2433" stroke-linecap="round" stroke-linejoin="round"/>
<path d="M13.2914 10.8489C13.0987 10.8489 12.9425 10.6927 12.9425 10.5C12.9425 10.3073 13.0987 10.1511 13.2914 10.1511" stroke="#0E2433" stroke-linecap="round" stroke-linejoin="round"/>
<path d="M13.2914 10.8489C13.4841 10.8489 13.6403 10.6927 13.6403 10.5C13.6403 10.3073 13.4841 10.1511 13.2914 10.1511" stroke="#0E2433" stroke-linecap="round" stroke-linejoin="round"/>
<path d="M7.01099 19.1656C7.65746 19.4273 8.3641 19.5714 9.1044 19.5714H11.8956C12.6359 19.5714 13.3425 19.4273 13.989 19.1656" stroke="#0E2433" stroke-linecap="round" stroke-linejoin="round"/>
<path d="M3.52197 11.1978V1.42859L9.3179 5.69402" stroke="#0E2433" stroke-linecap="round" stroke-linejoin="round"/>
<path d="M17.4779 11.1978V1.42859L11.7009 5.69402" stroke="#0E2433" stroke-linecap="round" stroke-linejoin="round"/>
<path d="M6.33908 7.01102C7.36126 6.15447 8.84672 5.61542 10.5001 5.61542C12.1534 5.61542 13.6388 6.15447 14.661 7.01102" stroke="#0E2433" stroke-linecap="round" stroke-linejoin="round"/>
<path d="M1.42856 13.9891H6.31318" stroke="#0E2433" stroke-linecap="round" stroke-linejoin="round"/>
<path d="M6.31319 16.7802L2.12637 18.8736" stroke="#0E2433" stroke-linecap="round" stroke-linejoin="round"/>
<path d="M14.6868 13.9891H19.5714" stroke="#0E2433" stroke-linecap="round" stroke-linejoin="round"/>
<path d="M14.6868 16.7802L18.8736 18.8736" stroke="#0E2433" stroke-linecap="round" stroke-linejoin="round"/>
<path d="M11.5467 13.9891H9.45331L10.5 14.6869L11.5467 13.9891Z" stroke="#0E2433" stroke-linecap="round" stroke-linejoin="round"/>
</svg>
