<svg width="73" height="79" viewBox="0 0 73 79" fill="none" xmlns="http://www.w3.org/2000/svg">
<g filter="url(#filter0_dd_420_317)">
<path fill-rule="evenodd" clip-rule="evenodd" d="M30.3253 9.80859L28.3441 14.9434L21.5232 18.8277L16.0888 17.9941C15.1825 17.8699 14.2599 18.0194 13.4384 18.4234C12.617 18.8274 11.9338 19.4677 11.476 20.2629L9.63597 23.5027C9.16351 24.3095 8.94577 25.2412 9.01147 26.1748C9.07717 27.1084 9.42322 28 10.004 28.732L13.4572 33.0332V40.8105L10.0981 45.1117C9.51736 45.8438 9.17131 46.7354 9.10561 47.669C9.03991 48.6026 9.25765 49.5343 9.73011 50.341L11.5701 53.5809C12.028 54.376 12.7111 55.0164 13.5326 55.4204C14.354 55.8244 15.2767 55.9738 16.183 55.8496L21.6174 55.016L28.3484 58.9004L30.3296 64.0395C30.663 64.9082 31.2499 65.6556 32.0134 66.1838C32.7769 66.7121 33.6815 66.9965 34.6087 67H38.4812C39.4103 66.9979 40.3171 66.7136 41.0824 66.1845C41.8476 65.6553 42.4355 64.9061 42.7688 64.0352L44.7501 58.9004L51.4768 55.016L56.9112 55.8496C57.8175 55.9738 58.7401 55.8244 59.5616 55.4204C60.383 55.0164 61.0662 54.376 61.524 53.5809L63.364 50.341C63.8365 49.5343 64.0542 48.6026 63.9885 47.669C63.9228 46.7354 63.5768 45.8438 62.996 45.1117L59.5428 40.8105V33.0332L62.9062 28.732C63.4869 28 63.833 27.1084 63.8987 26.1748C63.9644 25.2412 63.7466 24.3095 63.2742 23.5027L61.4342 20.2629C60.9767 19.4673 60.2937 18.8267 59.4721 18.4226C58.6505 18.0185 57.7277 17.8693 56.8213 17.9941L51.3869 18.8277L44.6559 14.9434L42.6747 9.8043C42.3405 8.93522 41.7528 8.18768 40.9886 7.65946C40.2243 7.13124 39.3191 6.84694 38.3914 6.84375H34.6087C33.6804 6.84727 32.7748 7.1322 32.0105 7.66123C31.2462 8.19025 30.6588 8.93871 30.3253 9.80859ZM36.5 46.5898C37.7644 46.5898 39.0163 46.3398 40.1844 45.8539C41.3526 45.3681 42.4139 44.6559 43.308 43.7582C44.202 42.8604 44.9112 41.7946 45.395 40.6217C45.8789 39.4487 46.1279 38.1915 46.1279 36.9219C46.1279 35.6523 45.8789 34.3951 45.395 33.2221C44.9112 32.0491 44.202 30.9833 43.308 30.0856C42.4139 29.1878 41.3526 28.4757 40.1844 27.9898C39.0163 27.504 37.7644 27.2539 36.5 27.2539C33.9465 27.2539 31.4976 28.2725 29.692 30.0856C27.8864 31.8987 26.8721 34.3578 26.8721 36.9219C26.8721 39.486 27.8864 41.9451 29.692 43.7582C31.4976 45.5713 33.9465 46.5898 36.5 46.5898Z" fill="#E6E6E6"/>
</g>
<defs>
<filter id="filter0_dd_420_317" x="0.5" y="0.84375" width="72" height="77.6562" filterUnits="userSpaceOnUse" color-interpolation-filters="sRGB">
<feFlood flood-opacity="0" result="BackgroundImageFix"/>
<feColorMatrix in="SourceAlpha" type="matrix" values="0 0 0 0 0 0 0 0 0 0 0 0 0 0 0 0 0 0 127 0" result="hardAlpha"/>
<feOffset dy="-2"/>
<feGaussianBlur stdDeviation="2"/>
<feComposite in2="hardAlpha" operator="out"/>
<feColorMatrix type="matrix" values="0 0 0 0 0.901961 0 0 0 0 0.901961 0 0 0 0 0.901961 0 0 0 0.25 0"/>
<feBlend mode="normal" in2="BackgroundImageFix" result="effect1_dropShadow_420_317"/>
<feColorMatrix in="SourceAlpha" type="matrix" values="0 0 0 0 0 0 0 0 0 0 0 0 0 0 0 0 0 0 127 0" result="hardAlpha"/>
<feOffset dy="3"/>
<feGaussianBlur stdDeviation="4.25"/>
<feComposite in2="hardAlpha" operator="out"/>
<feColorMatrix type="matrix" values="0 0 0 0 0.901961 0 0 0 0 0.901961 0 0 0 0 0.901961 0 0 0 0.25 0"/>
<feBlend mode="normal" in2="effect1_dropShadow_420_317" result="effect2_dropShadow_420_317"/>
<feBlend mode="normal" in="SourceGraphic" in2="effect2_dropShadow_420_317" result="shape"/>
</filter>
</defs>
</svg>
