<svg width="52" height="56" viewBox="0 0 52 56" fill="none" xmlns="http://www.w3.org/2000/svg">
<path d="M18.7937 8.41064L20.5445 3.89136C20.8397 3.12619 21.3592 2.46803 22.0348 2.00308C22.7105 1.53813 23.5107 1.28807 24.3309 1.28564H27.6695C28.4896 1.28807 29.2899 1.53813 29.9655 2.00308C30.6412 2.46803 31.1606 3.12619 31.4559 3.89136L33.2066 8.41064L39.1507 11.8306L43.955 11.0978C44.755 10.9892 45.5693 11.1209 46.2945 11.4761C47.0192 11.8313 47.6221 12.394 48.0264 13.0928L49.655 15.9428C50.0723 16.6526 50.2649 17.4723 50.2067 18.2937C50.1485 19.1151 49.8427 19.8995 49.3293 20.5435L46.3571 24.3299V31.1699L49.4107 34.9564C49.9241 35.6003 50.2299 36.3848 50.2881 37.2061C50.3463 38.0275 50.1538 38.8472 49.7364 39.5571L48.1079 42.4071C47.7036 43.1057 47.1006 43.6684 46.3759 44.0238C45.6508 44.3789 44.8365 44.5108 44.0364 44.4021L39.2321 43.6692L33.288 47.0892L31.5373 51.6085C31.2421 52.3735 30.7226 53.0319 30.047 53.4968C29.3714 53.9618 28.571 54.2118 27.7509 54.2142H24.3309C23.5107 54.2118 22.7105 53.9618 22.0348 53.4968C21.3592 53.0319 20.8397 52.3735 20.5445 51.6085L18.7937 47.0892L12.8495 43.6692L8.04517 44.4021C7.24521 44.5108 6.43101 44.3789 5.70605 44.0238C4.98113 43.6684 4.37815 43.1057 3.97374 42.4071L2.34517 39.5571C1.92785 38.8472 1.73559 38.0275 1.79373 37.2061C1.85187 36.3848 2.15772 35.6003 2.67088 34.9564L5.64303 31.1699V24.3299L2.58945 20.5435C2.07629 19.8995 1.77045 19.1151 1.71231 18.2937C1.65417 17.4723 1.84642 16.6526 2.26374 15.9428L3.89231 13.0928C4.29673 12.394 4.89971 11.8313 5.62462 11.4761C6.34958 11.1209 7.16379 10.9892 7.96374 11.0978L12.768 11.8306L18.7937 8.41064ZM17.8573 27.7499C17.8573 29.3604 18.3349 30.9348 19.2296 32.2739C20.1244 33.6129 21.3961 34.6566 22.884 35.2729C24.372 35.8892 26.0092 36.0505 27.5888 35.7363C29.1683 35.4221 30.6192 34.6466 31.7581 33.5078C32.8968 32.369 33.6724 30.9181 33.9866 29.3385C34.3008 27.759 34.1395 26.1217 33.5232 24.6338C32.9069 23.1459 31.8632 21.8741 30.5241 20.9794C29.185 20.0846 27.6107 19.6071 26.0002 19.6071C23.8406 19.6071 21.7694 20.465 20.2423 21.9921C18.7152 23.5191 17.8573 25.5903 17.8573 27.7499Z" stroke="#0E2433" stroke-width="2" stroke-linecap="round" stroke-linejoin="round"/>
</svg>
