<svg width="33" height="35" viewBox="0 0 33 35" fill="none" xmlns="http://www.w3.org/2000/svg">
<path fill-rule="evenodd" clip-rule="evenodd" d="M12.9074 1.725L11.7547 4.7125L7.78625 6.9725L4.6244 6.4875C4.0971 6.41523 3.56031 6.50217 3.08237 6.73723C2.60443 6.9723 2.20696 7.34487 1.94057 7.8075L0.870019 9.6925C0.595135 10.1619 0.468446 10.7039 0.506671 11.2471C0.544897 11.7903 0.746239 12.3091 1.08413 12.735L3.09327 15.2375V19.7625L1.1389 22.265C0.801012 22.6909 0.599669 23.2097 0.561444 23.7529C0.523218 24.2961 0.649907 24.8381 0.924791 25.3075L1.99534 27.1925C2.26173 27.6551 2.6592 28.0277 3.13714 28.2628C3.61508 28.4978 4.15187 28.5848 4.67917 28.5125L7.84102 28.0275L11.7572 30.2875L12.9099 33.2775C13.104 33.7829 13.4454 34.2178 13.8896 34.5251C14.3339 34.8325 14.8601 34.998 15.3996 35H17.6527C18.1933 34.9988 18.7209 34.8334 19.1661 34.5255C19.6113 34.2176 19.9534 33.7817 20.1473 33.275L21.3 30.2875L25.2138 28.0275L28.3756 28.5125C28.9029 28.5848 29.4397 28.4978 29.9176 28.2628C30.3956 28.0277 30.793 27.6551 31.0594 27.1925L32.13 25.3075C32.4049 24.8381 32.5316 24.2961 32.4933 23.7529C32.4551 23.2097 32.2538 22.6909 31.9159 22.265L29.9067 19.7625V15.2375L31.8636 12.735C32.2015 12.3091 32.4028 11.7903 32.441 11.2471C32.4793 10.7039 32.3526 10.1619 32.0777 9.6925L31.0072 7.8075C30.741 7.34463 30.3436 6.97187 29.8656 6.73677C29.3876 6.50167 28.8506 6.41489 28.3233 6.4875L25.1615 6.9725L21.2453 4.7125L20.0926 1.7225C19.8981 1.21685 19.5562 0.78192 19.1115 0.474592C18.6669 0.167264 18.1402 0.0018541 17.6004 0L15.3996 0C14.8595 0.00204955 14.3326 0.167827 13.8879 0.475623C13.4433 0.78342 13.1015 1.21889 12.9074 1.725ZM16.5 23.125C17.2356 23.125 17.964 22.9795 18.6437 22.6968C19.3233 22.4141 19.9408 21.9998 20.461 21.4775C20.9812 20.9551 21.3938 20.3351 21.6753 19.6526C21.9568 18.9701 22.1017 18.2387 22.1017 17.5C22.1017 16.7613 21.9568 16.0299 21.6753 15.3474C21.3938 14.6649 20.9812 14.0449 20.461 13.5225C19.9408 13.0002 19.3233 12.5859 18.6437 12.3032C17.964 12.0205 17.2356 11.875 16.5 11.875C15.0143 11.875 13.5895 12.4676 12.539 13.5225C11.4885 14.5774 10.8983 16.0082 10.8983 17.5C10.8983 18.9918 11.4885 20.4226 12.539 21.4775C13.5895 22.5324 15.0143 23.125 16.5 23.125Z" fill="#ADADAD"/>
</svg>
