<svg width="73" height="73" viewBox="0 0 73 73" fill="none" xmlns="http://www.w3.org/2000/svg">
<g filter="url(#filter0_dd_421_471)">
<path fill-rule="evenodd" clip-rule="evenodd" d="M64 33.5C64 40.7935 61.1027 47.7882 55.9454 52.9454C50.7882 58.1027 43.7935 61 36.5 61C29.2065 61 22.2118 58.1027 17.0546 52.9454C11.8973 47.7882 9 40.7935 9 33.5C9 26.2065 11.8973 19.2118 17.0546 14.0546C22.2118 8.89731 29.2065 6 36.5 6C43.7935 6 50.7882 8.89731 55.9454 14.0546C61.1027 19.2118 64 26.2065 64 33.5ZM39.4464 18.7679C39.4464 17.9864 39.136 17.237 38.5834 16.6844C38.0309 16.1319 37.2814 15.8214 36.5 15.8214C35.7186 15.8214 34.9691 16.1319 34.4166 16.6844C33.864 17.237 33.5536 17.9864 33.5536 18.7679V20.7714C31.8237 20.9576 30.2164 21.7529 29.019 23.0153C27.8217 24.2776 27.1123 25.9247 27.0179 27.662C26.9234 29.3994 27.4499 31.1136 28.5033 32.4984C29.5567 33.8832 31.0683 34.8481 32.7679 35.2207L38.5586 36.4896C39.0341 36.591 39.4551 36.8652 39.7402 37.2591C40.0253 37.653 40.1541 38.1386 40.1018 38.622C40.0495 39.1054 39.8198 39.5523 39.4571 39.8761C39.0944 40.1999 38.6244 40.3777 38.1382 40.375H34.8618C34.456 40.3748 34.0603 40.2489 33.7289 40.0146C33.3976 39.7804 33.147 39.4493 33.0114 39.0668C32.7509 38.3296 32.2083 37.7261 31.5029 37.3891C30.7974 37.052 29.987 37.009 29.2498 37.2695C28.5127 37.5299 27.9092 38.0726 27.5721 38.778C27.235 39.4835 27.192 40.2939 27.4525 41.0311C28.3914 43.6789 30.7132 45.6825 33.5536 46.1579V48.2321C33.5536 49.0136 33.864 49.763 34.4166 50.3156C34.9691 50.8681 35.7186 51.1786 36.5 51.1786C37.2814 51.1786 38.0309 50.8681 38.5834 50.3156C39.136 49.763 39.4464 49.0136 39.4464 48.2321V46.1579C41.2446 45.852 42.8804 44.9303 44.0736 43.5508C45.2668 42.1712 45.9432 40.4197 45.9869 38.5962C46.0305 36.7728 45.4387 34.9909 44.3129 33.5559C43.187 32.1208 41.5972 31.1219 39.8157 30.7304L34.0289 29.4654C33.6847 29.3876 33.3811 29.186 33.1759 28.899C32.9707 28.6119 32.8783 28.2594 32.9161 27.9086C32.954 27.5578 33.1195 27.2331 33.3812 26.9964C33.6429 26.7597 33.9825 26.6275 34.3354 26.625H38.1382C38.5444 26.6235 38.9409 26.7487 39.2726 26.9832C39.6043 27.2177 39.8545 27.5498 39.9886 27.9332C40.1175 28.2982 40.3172 28.6342 40.576 28.9221C40.8348 29.21 41.1478 29.444 41.4971 29.6109C41.8464 29.7778 42.2252 29.8743 42.6118 29.8948C42.9983 29.9153 43.3852 29.8595 43.7502 29.7305C44.1152 29.6016 44.4512 29.402 44.7391 29.1431C45.0269 28.8843 45.261 28.5713 45.4279 28.222C45.5948 27.8727 45.6912 27.4939 45.7118 27.1073C45.7323 26.7208 45.6765 26.3339 45.5475 25.9689C45.0801 24.648 44.2679 23.4761 43.1952 22.5746C42.1224 21.6732 40.8281 21.075 39.4464 20.8421V18.7679Z" fill="#E6E6E6"/>
</g>
<defs>
<filter id="filter0_dd_421_471" x="0.5" y="0" width="72" height="72.5" filterUnits="userSpaceOnUse" color-interpolation-filters="sRGB">
<feFlood flood-opacity="0" result="BackgroundImageFix"/>
<feColorMatrix in="SourceAlpha" type="matrix" values="0 0 0 0 0 0 0 0 0 0 0 0 0 0 0 0 0 0 127 0" result="hardAlpha"/>
<feOffset dy="-2"/>
<feGaussianBlur stdDeviation="2"/>
<feComposite in2="hardAlpha" operator="out"/>
<feColorMatrix type="matrix" values="0 0 0 0 0.901961 0 0 0 0 0.901961 0 0 0 0 0.901961 0 0 0 0.25 0"/>
<feBlend mode="normal" in2="BackgroundImageFix" result="effect1_dropShadow_421_471"/>
<feColorMatrix in="SourceAlpha" type="matrix" values="0 0 0 0 0 0 0 0 0 0 0 0 0 0 0 0 0 0 127 0" result="hardAlpha"/>
<feOffset dy="3"/>
<feGaussianBlur stdDeviation="4.25"/>
<feComposite in2="hardAlpha" operator="out"/>
<feColorMatrix type="matrix" values="0 0 0 0 0.901961 0 0 0 0 0.901961 0 0 0 0 0.901961 0 0 0 0.25 0"/>
<feBlend mode="normal" in2="effect1_dropShadow_421_471" result="effect2_dropShadow_421_471"/>
<feBlend mode="normal" in="SourceGraphic" in2="effect2_dropShadow_421_471" result="shape"/>
</filter>
</defs>
</svg>
