<svg width="36" height="35" viewBox="0 0 36 35" fill="none" xmlns="http://www.w3.org/2000/svg">
<path fill-rule="evenodd" clip-rule="evenodd" d="M35.5 17.5C35.5 22.1413 33.6563 26.5925 30.3744 29.8744C27.0925 33.1563 22.6413 35 18 35C13.3587 35 8.90752 33.1563 5.62563 29.8744C2.34374 26.5925 0.5 22.1413 0.5 17.5C0.5 12.8587 2.34374 8.40752 5.62563 5.12563C8.90752 1.84374 13.3587 0 18 0C22.6413 0 27.0925 1.84374 30.3744 5.12563C33.6563 8.40752 35.5 12.8587 35.5 17.5ZM19.875 8.125C19.875 7.62772 19.6775 7.15081 19.3258 6.79917C18.9742 6.44754 18.4973 6.25 18 6.25C17.5027 6.25 17.0258 6.44754 16.6742 6.79917C16.3225 7.15081 16.125 7.62772 16.125 8.125V9.4C15.0242 9.51844 14.0013 10.0246 13.2394 10.8279C12.4774 11.6312 12.026 12.6794 11.9659 13.7849C11.9058 14.8905 12.2409 15.9814 12.9112 16.8626C13.5816 17.7438 14.5435 18.3579 15.625 18.595L19.31 19.4025C19.6126 19.467 19.8805 19.6415 20.062 19.8922C20.2434 20.1428 20.3254 20.4518 20.2921 20.7595C20.2588 21.0671 20.1126 21.3514 19.8818 21.5575C19.651 21.7636 19.3519 21.8767 19.0425 21.875H16.9575C16.6993 21.8749 16.4474 21.7947 16.2366 21.6457C16.0258 21.4966 15.8662 21.2859 15.78 21.0425C15.6142 20.5734 15.2689 20.1894 14.82 19.9749C14.3711 19.7604 13.8554 19.733 13.3862 19.8988C12.9171 20.0645 12.5331 20.4098 12.3186 20.8587C12.1041 21.3077 12.0767 21.8234 12.2425 22.2925C12.84 23.9775 14.3175 25.2525 16.125 25.555V26.875C16.125 27.3723 16.3225 27.8492 16.6742 28.2008C17.0258 28.5525 17.5027 28.75 18 28.75C18.4973 28.75 18.9742 28.5525 19.3258 28.2008C19.6775 27.8492 19.875 27.3723 19.875 26.875V25.555C21.0193 25.3603 22.0602 24.7738 22.8196 23.8959C23.5789 23.0181 24.0093 21.9034 24.0371 20.7431C24.0649 19.5827 23.6883 18.4488 22.9718 17.5355C22.2554 16.6223 21.2436 15.9867 20.11 15.7375L16.4275 14.9325C16.2085 14.883 16.0153 14.7548 15.8847 14.5721C15.7541 14.3894 15.6953 14.1651 15.7193 13.9418C15.7434 13.7186 15.8488 13.512 16.0153 13.3614C16.1818 13.2107 16.398 13.1266 16.6225 13.125H19.0425C19.301 13.124 19.5533 13.2037 19.7644 13.3529C19.9754 13.5022 20.1347 13.7135 20.22 13.9575C20.3021 14.1898 20.4291 14.4036 20.5938 14.5868C20.7585 14.77 20.9577 14.9189 21.18 15.0251C21.4023 15.1313 21.6433 15.1927 21.8893 15.2058C22.1353 15.2188 22.3815 15.1833 22.6138 15.1012C22.846 15.0192 23.0599 14.8921 23.243 14.7274C23.4262 14.5627 23.5752 14.3635 23.6814 14.1413C23.7876 13.919 23.849 13.6779 23.862 13.4319C23.8751 13.1859 23.8396 12.9398 23.7575 12.7075C23.46 11.8669 22.9432 11.1211 22.2606 10.5475C21.5779 9.97386 20.7543 9.59321 19.875 9.445V8.125Z" fill="#ADADAD"/>
</svg>
