<svg width="32" height="32" viewBox="0 0 32 32" fill="none" xmlns="http://www.w3.org/2000/svg">
<path d="M30.5987 19.4615C29.0359 26.077 23.0929 31 16 31C7.71573 31 1 24.2844 1 16C1 7.71573 7.71573 1 16 1C21.787 1 26.8088 4.27718 29.3103 9.07692" stroke="#161616" stroke-linecap="round"/>
<path d="M31 4.46155V10.2308H25.2308" stroke="#161616" stroke-linecap="round" stroke-linejoin="round"/>
<path d="M10.8077 21.1922V16.5768C10.8077 15.9396 11.3243 15.423 11.9615 15.423H20.0384C20.6757 15.423 21.1923 15.9396 21.1923 16.5768V21.1922C21.1923 21.8295 20.6757 22.3461 20.0384 22.3461H11.9615C11.3243 22.3461 10.8077 21.8295 10.8077 21.1922Z" stroke="#161616" stroke-linejoin="round"/>
<path d="M12.5385 15.423V13.1153C12.5385 11.2036 14.0882 9.65381 16 9.65381C17.9118 9.65381 19.4615 11.2036 19.4615 13.1153V15.423" stroke="#161616" stroke-linecap="round" stroke-linejoin="round"/>
</svg>
