<svg width="60" height="60" viewBox="0 0 60 60" fill="none" xmlns="http://www.w3.org/2000/svg">
<path d="M30 58.25C45.7403 58.25 58.5 45.4903 58.5 29.75C58.5 14.0099 45.7403 1.25 30 1.25C14.2599 1.25 1.5 14.0099 1.5 29.75C1.5 45.4903 14.2599 58.25 30 58.25Z" stroke="#0E2433" stroke-width="2" stroke-linecap="round" stroke-linejoin="round"/>
<path d="M37.462 21.9558C37.2053 21.2297 36.8093 20.5694 36.306 20.0071C35.2355 18.8111 33.6799 18.0584 31.9485 18.0584H27.4234C24.5413 18.0584 22.2049 20.3948 22.2049 23.2768C22.2049 25.7292 23.9125 27.8507 26.3082 28.3748L33.1978 29.8819C35.8817 30.469 37.7946 32.8474 37.7946 35.5947C37.7946 38.8235 35.1772 41.443 31.9485 41.443H28.051C25.5056 41.443 23.3401 39.8162 22.5376 37.5456" stroke="#0E2433" stroke-width="2" stroke-linecap="round" stroke-linejoin="round"/>
<path d="M30 18.0576V12.2115" stroke="#0E2433" stroke-width="2" stroke-linecap="round" stroke-linejoin="round"/>
<path d="M30 47.2875V41.4415" stroke="#0E2433" stroke-width="2" stroke-linecap="round" stroke-linejoin="round"/>
</svg>
