<svg width="76" height="54" viewBox="0 0 76 54" fill="none" xmlns="http://www.w3.org/2000/svg">
<path d="M73.5309 22.9512C74.4765 24.1302 75 25.6619 75 27.2501C75 28.8382 74.4765 30.3699 73.5309 31.5489C67.5426 38.7991 53.9118 52.9145 38 52.9145C22.0882 52.9145 8.45768 38.7991 2.46936 31.5489C1.52354 30.3699 1 28.8382 1 27.2501C1 25.6619 1.52354 24.1302 2.46936 22.9512C8.45768 15.701 22.0882 1.58551 38 1.58551C53.9118 1.58551 67.5426 15.701 73.5309 22.9512Z" stroke="#0E2433" stroke-width="2" stroke-linecap="round" stroke-linejoin="round"/>
<path d="M38.0002 38.6561C44.2998 38.6561 49.4065 33.5493 49.4065 27.2498C49.4065 20.9502 44.2998 15.8434 38.0002 15.8434C31.7007 15.8434 26.5939 20.9502 26.5939 27.2498C26.5939 33.5493 31.7007 38.6561 38.0002 38.6561Z" stroke="#0E2433" stroke-width="2" stroke-linecap="round" stroke-linejoin="round"/>
</svg>
