<svg width="21" height="19" viewBox="0 0 21 19" fill="none" xmlns="http://www.w3.org/2000/svg">
<path fill-rule="evenodd" clip-rule="evenodd" d="M6.03628 0.892029C7.50629 0.999886 9.03929 1.72754 10.5063 3.19653C11.9733 1.72602 13.5048 1.00141 14.9733 0.896586C16.6323 0.776576 18.0978 1.45562 19.1583 2.5266C21.2433 4.63209 21.8988 8.44355 19.3113 11.064C19.3026 11.0729 19.2936 11.0815 19.2843 11.0898L11.0103 18.6809C10.8723 18.8077 10.6926 18.8779 10.5063 18.8779C10.32 18.8779 10.1403 18.8077 10.0023 18.6809L1.72826 11.0898C1.71905 11.0815 1.71005 11.0729 1.70126 11.064C-0.899748 8.42988 -0.248745 4.61842 1.84376 2.51444C2.90727 1.44499 4.37577 0.7705 6.03628 0.892029Z" fill="#E6E6E6"/>
</svg>
