<svg width="35" height="33" viewBox="0 0 35 33" fill="none" xmlns="http://www.w3.org/2000/svg">
<path fill-rule="evenodd" clip-rule="evenodd" d="M19.2368 1.23245C18.768 0.763777 18.1322 0.500488 17.4693 0.500488C16.8064 0.500488 16.1706 0.763777 15.7018 1.23245L0.70178 16.2325C0.246384 16.704 -0.00560154 17.3355 9.45065e-05 17.991C0.00579055 18.6465 0.268713 19.2735 0.732233 19.737C1.19575 20.2005 1.82278 20.4634 2.47828 20.4691C3.13377 20.4748 3.76527 20.2229 4.23678 19.7675L4.96928 19.035V30.5C4.96928 31.163 5.23267 31.7989 5.70151 32.2677C6.17035 32.7366 6.80624 33 7.46928 33H27.4693C28.1323 33 28.7682 32.7366 29.237 32.2677C29.7059 31.7989 29.9693 31.163 29.9693 30.5V19.035L30.7018 19.7675C30.9324 20.0062 31.2083 20.1967 31.5133 20.3277C31.8183 20.4587 32.1463 20.5277 32.4783 20.5306C32.8102 20.5335 33.1394 20.4702 33.4467 20.3445C33.7539 20.2188 34.033 20.0332 34.2678 19.7984C34.5025 19.5637 34.6881 19.2846 34.8138 18.9773C34.9395 18.6701 35.0028 18.3409 34.9999 18.009C34.997 17.677 34.9281 17.349 34.797 17.0439C34.666 16.7389 34.4756 16.4631 34.2368 16.2325L19.2368 1.23245Z" fill="#ADADAD"/>
</svg>
