<svg width="14" height="13" viewBox="0 0 14 13" fill="none" xmlns="http://www.w3.org/2000/svg">
<path fill-rule="evenodd" clip-rule="evenodd" d="M0.830991 5.61325C0.737858 5.70009 0.663584 5.80517 0.612786 5.92194C0.561988 6.03872 0.53575 6.16469 0.535706 6.29203L0.535706 11.6072C0.535706 11.9766 0.682453 12.3309 0.943664 12.5921C1.20488 12.8533 1.55915 13 1.92856 13H6.10713V10.2143C6.10713 9.96805 6.20497 9.73186 6.37911 9.55772C6.55325 9.38358 6.78943 9.28575 7.03571 9.28575C7.28198 9.28575 7.51816 9.38358 7.6923 9.55772C7.86645 9.73186 7.96428 9.96805 7.96428 10.2143V13H12.1428C12.5123 13 12.8665 12.8533 13.1277 12.5921C13.389 12.3309 13.5357 11.9766 13.5357 11.6072V6.29203C13.5357 6.16469 13.5094 6.03872 13.4586 5.92194C13.4078 5.80517 13.3336 5.70009 13.2404 5.61325L7.33749 0.111459C7.25339 0.0395276 7.14637 0 7.03571 0C6.92504 0 6.81802 0.0395276 6.73392 0.111459L0.830991 5.61325Z" fill="#ADADAD" fill-opacity="0.75"/>
</svg>
