<svg width="30" height="24" viewBox="0 0 30 24" fill="none" xmlns="http://www.w3.org/2000/svg">
<path d="M2.07143 3.79837C2.66316 3.79837 3.14286 3.31867 3.14286 2.72695C3.14286 2.13522 2.66316 1.65552 2.07143 1.65552C1.4797 1.65552 1 2.13522 1 2.72695C1 3.31867 1.4797 3.79837 2.07143 3.79837Z" fill="#E6E6E6" stroke="#E6E6E6" stroke-width="1.5" stroke-linecap="round" stroke-linejoin="round"/>
<path d="M9.57141 2.72693H28.8571H9.57141Z" fill="#E6E6E6"/>
<path d="M9.57141 2.72693H28.8571" stroke="#E6E6E6" stroke-width="1.5" stroke-linecap="round" stroke-linejoin="round"/>
<path d="M2.07143 13.4412C2.66316 13.4412 3.14286 12.9615 3.14286 12.3698C3.14286 11.778 2.66316 11.2983 2.07143 11.2983C1.4797 11.2983 1 11.778 1 12.3698C1 12.9615 1.4797 13.4412 2.07143 13.4412Z" fill="#E6E6E6" stroke="#E6E6E6" stroke-width="1.5" stroke-linecap="round" stroke-linejoin="round"/>
<path d="M9.57141 12.3698H28.8571H9.57141Z" fill="#E6E6E6"/>
<path d="M9.57141 12.3698H28.8571" stroke="#E6E6E6" stroke-width="1.5" stroke-linecap="round" stroke-linejoin="round"/>
<path d="M2.07143 23.0841C2.66316 23.0841 3.14286 22.6044 3.14286 22.0127C3.14286 21.4211 2.66316 20.9413 2.07143 20.9413C1.4797 20.9413 1 21.4211 1 22.0127C1 22.6044 1.4797 23.0841 2.07143 23.0841Z" fill="#E6E6E6" stroke="#E6E6E6" stroke-width="1.5" stroke-linecap="round" stroke-linejoin="round"/>
<path d="M9.57141 22.0127H28.8571H9.57141Z" fill="#E6E6E6"/>
<path d="M9.57141 22.0127H28.8571" stroke="#E6E6E6" stroke-width="1.5" stroke-linecap="round" stroke-linejoin="round"/>
</svg>
