<svg width="103" height="103" viewBox="0 0 103 103" fill="none" xmlns="http://www.w3.org/2000/svg">
<path d="M18.6537 89.1923C22.0863 83.5577 26.9107 78.9008 32.663 75.67C38.4153 72.4383 44.902 70.7411 51.4998 70.7411C58.0976 70.7411 64.5844 72.4383 70.3367 75.67C76.0892 78.9008 80.913 83.5577 84.3461 89.1923M51.4999 59.1923C62.1208 59.1923 70.7307 50.5824 70.7307 39.9616C70.7307 29.3407 62.1208 20.7308 51.4999 20.7308C40.8791 20.7308 32.2692 29.3407 32.2692 39.9616C32.2692 50.5824 40.8791 59.1923 51.4999 59.1923ZM51.5 101.5C79.1146 101.5 101.5 79.1146 101.5 51.5C101.5 23.8858 79.1146 1.5 51.5 1.5C23.8858 1.5 1.5 23.8858 1.5 51.5C1.5 79.1146 23.8858 101.5 51.5 101.5Z" stroke="white" stroke-width="2.4784" stroke-linecap="round" stroke-linejoin="round"/>
</svg>
