<svg width="54" height="54" viewBox="0 0 54 54" fill="none" xmlns="http://www.w3.org/2000/svg">
<path d="M36.9739 40.8834V48.6739C36.9739 49.7069 36.5536 50.6979 35.8054 51.4282C35.0572 52.1586 34.0425 52.5691 32.9844 52.5691H5.05736C3.99925 52.5691 2.9845 52.1586 2.23631 51.4282C1.48812 50.6979 1.06779 49.7069 1.06779 48.6739V5.8261C1.06779 4.793 1.48812 3.80224 2.23631 3.07174C2.9845 2.34124 3.99925 1.93085 5.05736 1.93085H32.9844C34.0425 1.93085 35.0572 2.34124 35.8054 3.07174C36.5536 3.80224 36.9739 4.793 36.9739 5.8261V13.6166" stroke="#0E2433" stroke-width="2" stroke-linecap="round" stroke-linejoin="round"/>
<path d="M25.0052 27.2501H52.9322" stroke="#0E2433" stroke-width="2" stroke-linecap="round" stroke-linejoin="round"/>
<path d="M44.953 19.4595L52.9322 27.25L44.953 35.0405" stroke="#0E2433" stroke-width="2" stroke-linecap="round" stroke-linejoin="round"/>
</svg>
