<svg width="13" height="12" viewBox="0 0 13 12" fill="none" xmlns="http://www.w3.org/2000/svg">
<g clip-path="url(#clip0_458_179)">
<path fill-rule="evenodd" clip-rule="evenodd" d="M6.53571 12.0001C8.127 12.0001 9.65313 11.368 10.7783 10.2428C11.9036 9.11754 12.5357 7.59142 12.5357 6.00012C12.5357 4.40882 11.9036 2.8827 10.7783 1.75748C9.65313 0.632263 8.127 0.00012207 6.53571 0.00012207C4.94441 0.00012207 3.41828 0.632263 2.29306 1.75748C1.16785 2.8827 0.535706 4.40882 0.535706 6.00012C0.535706 7.59142 1.16785 9.11754 2.29306 10.2428C3.41828 11.368 4.94441 12.0001 6.53571 12.0001ZM3.96428 6.85726C4.19161 6.85726 4.40962 6.76696 4.57037 6.60621C4.73111 6.44547 4.82142 6.22745 4.82142 6.00012C4.82142 5.77279 4.73111 5.55478 4.57037 5.39403C4.40962 5.23328 4.19161 5.14298 3.96428 5.14298C3.73695 5.14298 3.51893 5.23328 3.35819 5.39403C3.19744 5.55478 3.10713 5.77279 3.10713 6.00012C3.10713 6.22745 3.19744 6.44547 3.35819 6.60621C3.51893 6.76696 3.73695 6.85726 3.96428 6.85726ZM7.39285 6.00012C7.39285 6.22745 7.30254 6.44547 7.1418 6.60621C6.98105 6.76696 6.76303 6.85726 6.53571 6.85726C6.30838 6.85726 6.09036 6.76696 5.92961 6.60621C5.76887 6.44547 5.67856 6.22745 5.67856 6.00012C5.67856 5.77279 5.76887 5.55478 5.92961 5.39403C6.09036 5.23328 6.30838 5.14298 6.53571 5.14298C6.76303 5.14298 6.98105 5.23328 7.1418 5.39403C7.30254 5.55478 7.39285 5.77279 7.39285 6.00012ZM9.10713 6.85726C9.33446 6.85726 9.55248 6.76696 9.71323 6.60621C9.87397 6.44547 9.96428 6.22745 9.96428 6.00012C9.96428 5.77279 9.87397 5.55478 9.71323 5.39403C9.55248 5.23328 9.33446 5.14298 9.10713 5.14298C8.87981 5.14298 8.66179 5.23328 8.50104 5.39403C8.3403 5.55478 8.24999 5.77279 8.24999 6.00012C8.24999 6.22745 8.3403 6.44547 8.50104 6.60621C8.66179 6.76696 8.87981 6.85726 9.10713 6.85726Z" fill="#C2C2C2"/>
</g>
<defs>
<clipPath id="clip0_458_179">
<rect width="12" height="12" fill="white" transform="translate(0.535706 0.00012207)"/>
</clipPath>
</defs>
</svg>
