<svg width="40" height="40" viewBox="0 0 40 40" fill="none" xmlns="http://www.w3.org/2000/svg">
<path fill-rule="evenodd" clip-rule="evenodd" d="M40 20C40.0068 25.1511 38.0193 30.1048 34.4543 33.8229C32.5958 35.7711 30.362 37.3227 27.8877 38.3843C25.4133 39.446 22.7496 39.9956 20.0571 40H20H19.9428C17.2504 39.9956 14.5867 39.446 12.1123 38.3843C9.63797 37.3227 7.40422 35.7711 5.54571 33.8229C3.28557 31.4595 1.63941 28.578 0.751447 25.4307C-0.13652 22.2834 -0.239211 18.9665 0.452371 15.7703C1.14395 12.5741 2.60871 9.59629 4.71833 7.09764C6.82795 4.59899 9.51808 2.65574 12.5531 1.43812C15.5881 0.220501 18.8753 -0.234346 22.1269 0.113423C25.3785 0.461192 28.4952 1.60097 31.2041 3.43291C33.9129 5.26485 36.1312 7.73307 37.6647 10.6214C39.1981 13.5097 40 16.7299 40 20ZM32.1228 30C30.6499 28.2111 28.7987 26.7707 26.7026 25.7827C24.6064 24.7946 22.3173 24.2834 20 24.2857C17.6826 24.2834 15.3936 24.7946 13.2974 25.7827C11.2013 26.7707 9.35013 28.2111 7.87714 30C9.35013 31.789 11.2013 33.2293 13.2974 34.2173C15.3936 35.2054 17.6826 35.7166 20 35.7143C22.3173 35.7166 24.6064 35.2054 26.7026 34.2173C28.7987 33.2293 30.6499 31.789 32.1228 30ZM20 21.4286C20.938 21.4286 21.8668 21.2439 22.7334 20.8849C23.6001 20.5259 24.3875 19.9998 25.0508 19.3365C25.714 18.6732 26.2402 17.8858 26.5991 17.0192C26.9581 16.1526 27.1428 15.2238 27.1428 14.2858C27.1428 13.3478 26.9581 12.4189 26.5991 11.5523C26.2402 10.6857 25.714 9.89829 25.0508 9.23502C24.3875 8.57174 23.6001 8.0456 22.7334 7.68664C21.8668 7.32768 20.938 7.14293 20 7.14293C18.1056 7.14293 16.2888 7.89547 14.9492 9.23502C13.6097 10.5746 12.8571 12.3914 12.8571 14.2858C12.8571 16.1802 13.6097 17.997 14.9492 19.3365C16.2888 20.6761 18.1056 21.4286 20 21.4286Z" fill="#161616"/>
</svg>
