<svg width="30" height="30" viewBox="0 0 30 30" fill="none" xmlns="http://www.w3.org/2000/svg">
<path d="M29.5 14.4231C29.5 22.0943 23.0268 28.3462 15 28.3462C6.97321 28.3462 0.5 22.0943 0.5 14.4231C0.5 6.75188 6.97321 0.5 15 0.5C23.0268 0.5 29.5 6.75188 29.5 14.4231Z" stroke="#161616"/>
<path d="M13.2827 15.2708L19.9607 8.84961L22.2321 11.0337" stroke="#161616" stroke-linecap="round" stroke-linejoin="round"/>
<path d="M17.4054 11.3066L19.3929 13.2177" stroke="#161616" stroke-linecap="round" stroke-linejoin="round"/>
<path d="M10.875 20.862C12.7567 20.862 14.2822 19.3953 14.2822 17.5859C14.2822 15.7766 12.7567 14.3098 10.875 14.3098C8.9933 14.3098 7.46786 15.7766 7.46786 17.5859C7.46786 19.3953 8.9933 20.862 10.875 20.862Z" stroke="#161616" stroke-linecap="round" stroke-linejoin="round"/>
</svg>
