<svg width="24" height="30" viewBox="0 0 24 30" fill="none" xmlns="http://www.w3.org/2000/svg">
<path fill-rule="evenodd" clip-rule="evenodd" d="M12 4.28571C10.9378 4.28571 9.91915 4.73724 9.16808 5.54097C8.41702 6.3447 7.99507 7.43479 7.99507 8.57143V10.7143H16.0049V8.57143C16.0049 8.00862 15.9013 7.45132 15.7001 6.93136C15.4988 6.41139 15.2038 5.93894 14.8319 5.54097C14.46 5.14301 14.0185 4.82732 13.5326 4.61194C13.0467 4.39657 12.5259 4.28571 12 4.28571ZM3.99014 8.57143V10.7143C3.19351 10.7143 2.42951 11.0529 1.86621 11.6557C1.30291 12.2585 0.98645 13.0761 0.98645 13.9286V26.7857C0.98645 27.2078 1.06414 27.6258 1.21509 28.0158C1.36604 28.4057 1.58729 28.7601 1.86621 29.0586C2.14513 29.357 2.47626 29.5938 2.84068 29.7553C3.2051 29.9169 3.59569 30 3.99014 30H20.0098C20.8065 30 21.5705 29.6614 22.1338 29.0586C22.6971 28.4558 23.0135 27.6382 23.0135 26.7857V13.9286C23.0135 13.0761 22.6971 12.2585 22.1338 11.6557C21.5705 11.0529 20.8065 10.7143 20.0098 10.7143V8.57143C20.0098 6.29814 19.166 4.11797 17.6638 2.51051C16.1617 0.903059 14.1243 0 12 0C9.87565 0 7.83831 0.903059 6.33618 2.51051C4.83404 4.11797 3.99014 6.29814 3.99014 8.57143ZM12 23.0357C12.6639 23.0357 13.3005 22.7535 13.7699 22.2512C14.2394 21.7488 14.5031 21.0675 14.5031 20.3571C14.5031 19.6467 14.2394 18.9654 13.7699 18.4631C13.3005 17.9608 12.6639 17.6786 12 17.6786C11.3361 17.6786 10.6995 17.9608 10.2301 18.4631C9.76063 18.9654 9.49692 19.6467 9.49692 20.3571C9.49692 21.0675 9.76063 21.7488 10.2301 22.2512C10.6995 22.7535 11.3361 23.0357 12 23.0357Z" fill="white"/>
</svg>
