<svg width="30" height="30" viewBox="0 0 30 30" fill="none" xmlns="http://www.w3.org/2000/svg">
<path fill-rule="evenodd" clip-rule="evenodd" d="M30 15C30.0051 18.8633 28.5145 22.5786 25.8407 25.3672C24.4468 26.8283 22.7715 27.992 20.9157 28.7883C19.06 29.5845 17.0622 29.9967 15.0428 30H15H14.9571C12.9378 29.9967 10.94 29.5845 9.08424 28.7883C7.22848 27.992 5.55316 26.8283 4.15928 25.3672C2.46418 23.5946 1.22956 21.4335 0.563585 19.073C-0.10239 16.7126 -0.179408 14.2248 0.339278 11.8277C0.857965 9.43059 1.95653 7.19722 3.53875 5.32323C5.12096 3.44924 7.13856 1.99181 9.41481 1.07859C11.6911 0.165376 14.1565 -0.175759 16.5952 0.0850674C19.0339 0.345894 21.3714 1.20073 23.4031 2.57468C25.4347 3.94864 27.0984 5.7998 28.2485 7.96602C29.3986 10.1322 30 12.5474 30 15ZM24.0921 22.5C22.9874 21.1583 21.599 20.0781 20.0269 19.337C18.4548 18.596 16.738 18.2126 15 18.2143C13.262 18.2126 11.5452 18.596 9.97307 19.337C8.40095 20.0781 7.0126 21.1583 5.90786 22.5C7.0126 23.8417 8.40095 24.922 9.97307 25.663C11.5452 26.404 13.262 26.7875 15 26.7857C16.738 26.7875 18.4548 26.404 20.0269 25.663C21.599 24.922 22.9874 23.8417 24.0921 22.5ZM15 16.0715C15.7035 16.0715 16.4001 15.9329 17.0501 15.6637C17.7 15.3945 18.2906 14.9998 18.7881 14.5024C19.2855 14.0049 19.6801 13.4144 19.9493 12.7644C20.2186 12.1145 20.3571 11.4178 20.3571 10.7143C20.3571 10.0108 20.2186 9.3142 19.9493 8.66424C19.6801 8.01429 19.2855 7.42372 18.7881 6.92626C18.2906 6.42881 17.7 6.0342 17.0501 5.76498C16.4001 5.49576 15.7035 5.3572 15 5.3572C13.5792 5.3572 12.2166 5.92161 11.2119 6.92626C10.2073 7.93092 9.64285 9.29353 9.64285 10.7143C9.64285 12.1351 10.2073 13.4977 11.2119 14.5024C12.2166 15.507 13.5792 16.0715 15 16.0715Z" fill="white"/>
</svg>
