<svg width="32" height="32" viewBox="0 0 32 32" fill="none" xmlns="http://www.w3.org/2000/svg">
<path d="M6.1461 27.3077C7.17588 25.6173 8.6232 24.2202 10.3489 23.251C12.0746 22.2815 14.0206 21.7723 15.9999 21.7723C17.9793 21.7723 19.9253 22.2815 21.651 23.251C23.3768 24.2202 24.8239 25.6173 25.8538 27.3077M16 18.3077C19.1862 18.3077 21.7692 15.7247 21.7692 12.5385C21.7692 9.35221 19.1862 6.76924 16 6.76924C12.8137 6.76924 10.2307 9.35221 10.2307 12.5385C10.2307 15.7247 12.8137 18.3077 16 18.3077ZM16 31C24.2844 31 31 24.2844 31 16C31 7.71573 24.2844 1 16 1C7.71573 1 1 7.71573 1 16C1 24.2844 7.71573 31 16 31Z" stroke="#161616" stroke-linecap="round" stroke-linejoin="round"/>
</svg>
