<svg width="21" height="21" viewBox="0 0 21 21" fill="none" xmlns="http://www.w3.org/2000/svg">
<path d="M17.5055 4.35167C17.5055 3.57642 17.1976 2.83292 16.6493 2.28474C16.1011 1.73656 15.3576 1.42859 14.5824 1.42859C13.8072 1.42859 13.0637 1.73656 12.5155 2.28474C11.9673 2.83292 11.6594 3.57642 11.6594 4.35167C11.6626 5.12567 11.9727 5.86677 12.5217 6.41244L6.41244 12.5217C5.86677 11.9727 5.12567 11.6626 4.35167 11.6594C3.57642 11.6594 2.83292 11.9673 2.28474 12.5155C1.73656 13.0637 1.42859 13.8072 1.42859 14.5824C1.42859 15.3576 1.73656 16.1011 2.28474 16.6493C2.83292 17.1976 3.57642 17.5055 4.35167 17.5055C4.35167 18.2807 4.65963 19.0242 5.20782 19.5724C5.756 20.1206 6.4995 20.4286 7.27474 20.4286C8.04999 20.4286 8.79349 20.1206 9.34167 19.5724C9.88986 19.0242 10.1978 18.2807 10.1978 17.5055C10.1946 16.7315 9.88445 15.9905 9.33551 15.4447L15.4447 9.33551C15.9905 9.88445 16.7315 10.1946 17.5055 10.1978C18.2807 10.1978 19.0242 9.88986 19.5724 9.34167C20.1206 8.79349 20.4286 8.04999 20.4286 7.27474C20.4286 6.4995 20.1206 5.756 19.5724 5.20782C19.0242 4.65963 18.2807 4.35167 17.5055 4.35167Z" stroke="#0E2433" stroke-linecap="round" stroke-linejoin="round"/>
</svg>
