<svg width="31" height="31" viewBox="0 0 31 31" fill="none" xmlns="http://www.w3.org/2000/svg">
<path fill-rule="evenodd" clip-rule="evenodd" d="M26.1751 0.217C26.8167 -0.0168064 27.5117 -0.0625981 28.1785 0.0850069C28.8453 0.232612 29.4561 0.56748 29.9391 1.05025C30.4221 1.53303 30.7572 2.14365 30.9052 2.81034C31.0531 3.47704 31.0076 4.17211 30.7741 4.81386L22.8603 28.5333C22.6677 29.1162 22.3288 29.6399 21.876 30.0543C21.4232 30.4688 20.8716 30.7601 20.274 30.9004C19.6778 31.0456 19.0541 31.0333 18.4641 30.8648C17.874 30.6964 17.3379 30.3775 16.9083 29.9394L12.6613 25.7123L8.2017 28.0196C8.03075 28.1082 7.83964 28.1507 7.64723 28.143C7.45482 28.1352 7.26777 28.0773 7.10455 27.9751C6.94133 27.873 6.80759 27.73 6.71652 27.5603C6.62545 27.3906 6.58021 27.2001 6.58527 27.0076L6.76906 19.9574L22.3687 8.62686C22.5158 8.51999 22.6405 8.3852 22.7355 8.23016C22.8306 8.07513 22.8941 7.90289 22.9226 7.72328C22.9511 7.54368 22.9439 7.36022 22.9015 7.18339C22.8591 7.00656 22.7822 6.83982 22.6754 6.69268C22.5685 6.54554 22.4337 6.42089 22.2787 6.32585C22.1236 6.23081 21.9514 6.16724 21.7718 6.13876C21.5922 6.11028 21.4087 6.11746 21.2319 6.15988C21.0551 6.2023 20.8883 6.27914 20.7412 6.386L4.87806 17.9091L1.04734 14.0784C0.634495 13.6655 0.330122 13.1569 0.161302 12.5979C-0.00751797 12.0389 -0.0355504 11.4468 0.0796986 10.8744C0.195577 10.2485 0.475886 9.66477 0.891861 9.18304C1.30784 8.7013 1.8445 8.33892 2.44677 8.13307H2.45341L26.1728 0.214786L26.1751 0.217Z" fill="white"/>
</svg>
