<svg width="66" height="49" viewBox="0 0 66 49" fill="none" xmlns="http://www.w3.org/2000/svg">
<path d="M6.092 2H59.908C59.908 2 64 2 64 6.092V43.0631C64 43.0631 64 47.1551 59.908 47.1551H6.092C6.092 47.1551 2 47.1551 2 43.0631V6.092C2 6.092 2 2 6.092 2Z" stroke="white" stroke-width="2.5" stroke-linecap="round" stroke-linejoin="round"/>
<path d="M44.2522 19.2331H53.7278" stroke="white" stroke-width="2.5" stroke-linecap="round" stroke-linejoin="round"/>
<path d="M44.2522 28.6243H53.7278" stroke="white" stroke-width="2.5" stroke-linecap="round" stroke-linejoin="round"/>
<path d="M16.3418 20.7988C16.3418 25.1207 19.8453 28.6242 24.1672 28.6242C25.2597 28.6242 26.3 28.4003 27.2446 27.9959C30.0365 26.8004 31.9925 24.0281 31.9925 20.7988C31.9925 16.477 28.489 12.9735 24.1672 12.9735C19.8453 12.9735 16.3418 16.477 16.3418 20.7988Z" stroke="white" stroke-width="2.5" stroke-linecap="round" stroke-linejoin="round"/>
<path d="M12.2722 36.3732C13.5157 34.0081 15.2632 32.0535 17.347 30.6971C19.4307 29.3408 21.7805 28.6284 24.1704 28.6284C26.5605 28.6284 28.9103 29.3408 30.994 30.6971C33.0777 32.0535 34.8253 34.0081 36.0687 36.3732" stroke="white" stroke-width="2.5" stroke-linecap="round" stroke-linejoin="round"/>
</svg>
