<svg width="104" height="104" viewBox="0 0 104 104" fill="none" xmlns="http://www.w3.org/2000/svg">
<path d="M25.092 29H78.908C78.908 29 83 29 83 33.092V70.0631C83 70.0631 83 74.1551 78.908 74.1551H25.092C25.092 74.1551 21 74.1551 21 70.0631V33.092C21 33.092 21 29 25.092 29Z" stroke="white" stroke-width="2.5" stroke-linecap="round" stroke-linejoin="round"/>
<path d="M63.2522 46.2331H72.7278" stroke="white" stroke-width="2.5" stroke-linecap="round" stroke-linejoin="round"/>
<path d="M63.2522 55.6243H72.7278" stroke="white" stroke-width="2.5" stroke-linecap="round" stroke-linejoin="round"/>
<path d="M35.3418 47.7988C35.3418 52.1207 38.8453 55.6242 43.1672 55.6242C44.2597 55.6242 45.3 55.4003 46.2446 54.9959C49.0365 53.8004 50.9925 51.0281 50.9925 47.7988C50.9925 43.477 47.489 39.9735 43.1672 39.9735C38.8453 39.9735 35.3418 43.477 35.3418 47.7988Z" stroke="white" stroke-width="2.5" stroke-linecap="round" stroke-linejoin="round"/>
<path d="M2 52C2 79.6143 24.3858 102 52.0001 102C58.9812 102 65.628 100.569 71.6635 97.9852C89.5021 90.3471 102 72.6332 102 52C102 24.3857 79.6145 2 52.0001 2C24.3858 2 2 24.3857 2 52Z" stroke="white" stroke-width="2.5" stroke-linecap="round" stroke-linejoin="round"/>
<path d="M31.2722 63.3732C32.5157 61.0081 34.2632 59.0535 36.347 57.6971C38.4307 56.3408 40.7805 55.6284 43.1704 55.6284C45.5605 55.6284 47.9103 56.3408 49.994 57.6971C52.0777 59.0535 53.8253 61.0081 55.0687 63.3732" stroke="white" stroke-width="2.5" stroke-linecap="round" stroke-linejoin="round"/>
</svg>
