<svg width="18" height="18" viewBox="0 0 18 18" fill="none" xmlns="http://www.w3.org/2000/svg">
<path d="M5.50549 16.5715C7.75712 16.5715 9.58242 14.7462 9.58242 12.4945C9.58242 10.2429 7.75712 8.4176 5.50549 8.4176C3.25386 8.4176 1.42856 10.2429 1.42856 12.4945C1.42856 14.7462 3.25386 16.5715 5.50549 16.5715Z" stroke="#0E2433" stroke-linecap="round" stroke-linejoin="round"/>
<path d="M5.73846 8.42926L4.34065 1.42859H1.42856" stroke="#0E2433" stroke-linecap="round" stroke-linejoin="round"/>
<path d="M9.53584 13.0768H14.7782L15.0882 14.2144L13.4031 8.03314C13.3113 7.48402 13.0258 6.98593 12.5985 6.62908C12.1711 6.27225 11.6301 6.08025 11.0734 6.08786H5.24924" stroke="#0E2433" stroke-linecap="round" stroke-linejoin="round"/>
<path d="M13.7525 10.1649H8.84857" stroke="#0E2433" stroke-linecap="round" stroke-linejoin="round"/>
<path d="M15.4066 16.5714C16.0499 16.5714 16.5714 16.0499 16.5714 15.4066C16.5714 14.7633 16.0499 14.2418 15.4066 14.2418C14.7633 14.2418 14.2418 14.7633 14.2418 15.4066C14.2418 16.0499 14.7633 16.5714 15.4066 16.5714Z" stroke="#0E2433" stroke-linecap="round" stroke-linejoin="round"/>
</svg>
